  <svg className="w-full h-full" viewBox="0 0 550 420" fill="none" xmlns="http://www.w3.org/2000/svg">
    <rect width="550" height="420" rx="24" fill="color-card" fillOpacity="0.1"/>
    <rect x="27" y="24" width="496" height="372" rx="12" fill="color-card" fillOpacity="0.8"/>
    <path d="M27 72H523V88H27V72Z" fill="#7f49a7" fillOpacity="0.2"/>
    <rect x="52" y="112" width="220" height="260" rx="8" fill="color-card"/>
    <rect x="52" y="128" width="150" height="12" rx="6" fill="#7f49a7" fillOpacity="0.3"/>
    <rect x="52" y="152" width="100" height="8" rx="4" fill="#E5E7EB"/>
    <rect x="52" y="172" width="180" height="8" rx="4" fill="#E5E7EB"/>
    <rect x="52" y="202" width="180" height="32" rx="8" fill="#7f49a7" fillOpacity="0.7"/>
    <rect x="64" y="210" width="80" height="16" rx="8" fill="color-card"/>
    <rect x="302" y="112" width="196" height="180" rx="8" fill="color-card"/>
    <rect x="314" y="128" width="130" height="12" rx="6" fill="#7f49a7" fillOpacity="0.3"/>
    <rect x="314" y="152" width="80" height="8" rx="4" fill="#E5E7EB"/>
    <rect x="314" y="172" width="160" height="8" rx="4" fill="#E5E7EB"/>
    <rect x="314" y="192" width="160" height="8" rx="4" fill="#E5E7EB"/>
    <rect x="448" y="252" width="38" height="26" rx="6" fill="#34D399"/>
  </svg>